<!-- icon666.com - MILLIONS OF FREE VECTOR ICONS --><svg id="Layer_1" viewBox="0 0 100 100" xmlns="http://www.w3.org/2000/svg"><path d="m90 30.974h-24.756l-1.911-7.64h-20v-6.667h-6.667v6.667l-6.666 26.666h-10v13.333c-5.5 0-10 4.499-10 10 0 5.502 4.5 10 10 10h60c5.501 0 10-4.498 10-10 0-5.501-4.499-10-10-10v-13.333h-10l-3.089-12.359h23.089zm-48.128-.974h16.256l5 20h-26.256zm-18.539 46.667c-1.843 0-3.333-1.491-3.333-3.334 0-1.842 1.491-3.333 3.333-3.333s3.333 1.491 3.333 3.333c.001 1.843-1.49 3.334-3.333 3.334zm13.334 0c-1.842 0-3.333-1.491-3.333-3.334 0-1.842 1.491-3.333 3.333-3.333s3.333 1.491 3.333 3.333c0 1.843-1.491 3.334-3.333 3.334zm13.333 0c-1.842 0-3.333-1.491-3.333-3.334 0-1.842 1.491-3.333 3.333-3.333 1.843 0 3.333 1.491 3.333 3.333 0 1.843-1.49 3.334-3.333 3.334zm13.333 0c-1.842 0-3.333-1.491-3.333-3.334 0-1.842 1.491-3.333 3.333-3.333 1.843 0 3.334 1.491 3.334 3.333 0 1.843-1.491 3.334-3.334 3.334zm13.334-6.667c1.842 0 3.333 1.491 3.333 3.333 0 1.843-1.491 3.334-3.333 3.334-1.843 0-3.334-1.491-3.334-3.334 0-1.842 1.491-3.333 3.334-3.333zm-3.334-13.333v6.666h-46.666v-6.666z"></path></svg>