<?xml version="1.0" encoding="UTF-8"?>
<!DOCTYPE svg PUBLIC "-//W3C//DTD SVG 1.1//EN" "http://www.w3.org/Graphics/SVG/1.1/DTD/svg11.dtd">
<svg xmlns="http://www.w3.org/2000/svg" version="1.1" width="700px" height="500px" style="shape-rendering:geometricPrecision; text-rendering:geometricPrecision; image-rendering:optimizeQuality; fill-rule:evenodd; clip-rule:evenodd" xmlns:xlink="http://www.w3.org/1999/xlink">
<g><path style="opacity:1" fill="#fefefe" d="M -0.5,-0.5 C 232.833,-0.5 466.167,-0.5 699.5,-0.5C 699.5,166.167 699.5,332.833 699.5,499.5C 466.167,499.5 232.833,499.5 -0.5,499.5C -0.5,332.833 -0.5,166.167 -0.5,-0.5 Z"/></g>
<g><path style="opacity:1" fill="#797979" d="M 253.5,59.5 C 243.482,59.41 233.482,59.7433 223.5,60.5C 229.084,58.9656 234.917,58.2989 241,58.5C 245.347,58.501 249.514,58.8343 253.5,59.5 Z"/></g>
<g><path style="opacity:1" fill="#7d7d7d" d="M 370.5,59.5 C 367.763,59.4013 365.096,59.7347 362.5,60.5C 363.492,58.9735 364.992,58.3068 367,58.5C 368.385,58.5143 369.551,58.8476 370.5,59.5 Z"/></g>
<g><path style="opacity:1" fill="#626262" d="M 520.5,59.5 C 517.215,59.2104 514.215,59.877 511.5,61.5C 511.953,60.5416 512.619,59.7083 513.5,59C 516.039,58.2042 518.372,58.3709 520.5,59.5 Z"/></g>
<g><path style="opacity:1" fill="#777777" d="M 223.5,60.5 C 219.767,62.411 215.767,63.7444 211.5,64.5C 215.085,62.1939 219.085,60.8606 223.5,60.5 Z"/></g>
<g><path style="opacity:1" fill="#303030" d="M 253.5,59.5 C 270.157,64.8138 275.657,75.8138 270,92.5C 267.038,98.7924 262.205,102.959 255.5,105C 235.492,101.923 220.659,109.09 211,126.5C 206.557,145.515 213.057,159.348 230.5,168C 253.239,167.847 273.906,174.181 292.5,187C 307.67,200.505 316.67,217.339 319.5,237.5C 319.9,248.985 318.9,260.318 316.5,271.5C 307.351,297.482 289.684,314.982 263.5,324C 251.831,326.151 240.164,328.151 228.5,330C 212.06,338.282 206.226,351.449 211,369.5C 214.596,380.096 221.762,386.929 232.5,390C 285.833,390.333 339.167,390.667 392.5,391C 399.307,394.272 400.307,398.938 395.5,405C 340.916,406.658 286.249,406.991 231.5,406C 203.737,397.316 191.404,378.482 194.5,349.5C 195.924,347.485 196.59,345.152 196.5,342.5C 206.841,319.317 224.841,308.983 250.5,311.5C 253.152,311.59 255.485,310.924 257.5,309.5C 278.728,302.936 293.061,289.27 300.5,268.5C 301.674,267.486 302.34,266.153 302.5,264.5C 303.092,261.873 303.425,259.206 303.5,256.5C 304.165,253.686 304.498,250.686 304.5,247.5C 304.646,242.576 303.979,237.909 302.5,233.5C 302.139,229.085 300.806,225.085 298.5,221.5C 291.581,204.912 279.581,193.912 262.5,188.5C 260.485,187.076 258.152,186.41 255.5,186.5C 248.077,184.745 240.411,184.079 232.5,184.5C 230.485,183.076 228.152,182.41 225.5,182.5C 201.734,172.311 191.401,154.311 194.5,128.5C 195.924,126.485 196.59,124.152 196.5,121.5C 202.84,106.491 213.84,96.8244 229.5,92.5C 232.152,92.5905 234.485,91.9238 236.5,90.5C 241.511,90.6659 246.511,90.4993 251.5,90C 256.069,87.4586 257.569,83.6253 256,78.5C 254.786,76.9512 253.286,75.7845 251.5,75C 219.392,71.8022 196.225,84.6355 182,113.5C 181.187,115.436 180.687,117.436 180.5,119.5C 179.076,121.515 178.41,123.848 178.5,126.5C 175.178,150.027 182.178,170.194 199.5,187C 204.23,190.364 209.23,193.197 214.5,195.5C 218.085,197.806 222.085,199.139 226.5,199.5C 236.014,201.01 245.681,202.343 255.5,203.5C 279.247,213.11 290.08,230.777 288,256.5C 283.997,274.993 273.164,287.327 255.5,293.5C 245.65,294.569 235.983,295.902 226.5,297.5C 223.848,297.41 221.515,298.076 219.5,299.5C 201.141,306.526 188.474,319.192 181.5,337.5C 180.076,339.515 179.41,341.848 179.5,344.5C 174.103,371.134 182.103,392.967 203.5,410C 208.631,413.899 214.298,416.732 220.5,418.5C 222.515,419.924 224.848,420.59 227.5,420.5C 227.5,420.833 227.5,421.167 227.5,421.5C 227.062,421.435 226.728,421.601 226.5,422C 229.377,423.127 232.377,423.794 235.5,424C 292.5,424.667 349.5,424.667 406.5,424C 350.332,423.833 294.332,423.333 238.5,422.5C 294.5,422.5 350.5,422.5 406.5,422.5C 406.5,385.5 406.5,348.5 406.5,311.5C 400.158,311.666 393.825,311.5 387.5,311C 375.308,296.775 363.474,282.275 352,267.5C 351.333,238.833 351.333,210.167 352,181.5C 353.371,179.959 354.871,178.625 356.5,177.5C 362.833,177.5 369.167,177.5 375.5,177.5C 375.5,161.5 375.5,145.5 375.5,129.5C 366.5,129.5 357.5,129.5 348.5,129.5C 346.496,128.327 344.996,126.66 344,124.5C 343.333,109.167 343.333,93.8333 344,78.5C 345.638,76.2663 347.805,74.933 350.5,74.5C 353.5,74.5 356.5,74.5 359.5,74.5C 359.307,70.4338 359.64,66.4338 360.5,62.5C 360.833,61.5 361.5,60.8333 362.5,60.5C 365.096,59.7347 367.763,59.4013 370.5,59.5C 372.129,60.6253 373.629,61.9586 375,63.5C 375.667,70.5 375.667,77.5 375,84.5C 373.833,87 372,88.8333 369.5,90C 366.183,90.4983 362.85,90.665 359.5,90.5C 359.5,98.5 359.5,106.5 359.5,114.5C 376.17,114.333 392.837,114.5 409.5,115C 414.626,117.553 415.793,121.386 413,126.5C 411.729,127.883 410.229,128.883 408.5,129.5C 402.5,129.5 396.5,129.5 390.5,129.5C 390.5,145.5 390.5,161.5 390.5,177.5C 427.67,177.832 464.67,177.498 501.5,176.5C 501.5,160.833 501.5,145.167 501.5,129.5C 476.833,129.5 452.167,129.5 427.5,129.5C 420.923,124.418 420.923,119.418 427.5,114.5C 460.167,114.5 492.833,114.5 525.5,114.5C 525.5,106.167 525.5,97.8333 525.5,89.5C 521.5,89.5 517.5,89.5 513.5,89.5C 512.571,88.0639 511.405,86.7305 510,85.5C 509.333,77.8333 509.333,70.1667 510,62.5C 510.383,61.944 510.883,61.6107 511.5,61.5C 514.215,59.877 517.215,59.2104 520.5,59.5C 522.129,60.6253 523.629,61.9586 525,63.5C 525.499,67.1516 525.665,70.8183 525.5,74.5C 528.85,74.335 532.183,74.5017 535.5,75C 537.286,75.7845 538.786,76.9512 540,78.5C 540.667,94.1667 540.667,109.833 540,125.5C 538.629,127.041 537.129,128.375 535.5,129.5C 529.167,129.5 522.833,129.5 516.5,129.5C 516.5,145.5 516.5,161.5 516.5,177.5C 522.833,177.5 529.167,177.5 535.5,177.5C 535.5,177.833 535.5,178.167 535.5,178.5C 511.509,178.667 511.509,179.167 535.5,180C 536.667,180.5 537.5,181.333 538,182.5C 538.333,209.167 538.667,235.833 539,262.5C 539.5,235.502 539.667,208.502 539.5,181.5C 540.664,210.33 540.83,239.33 540,268.5C 529.333,281.833 518.667,295.167 508,308.5C 506.729,309.883 505.229,310.883 503.5,311.5C 497.5,311.5 491.5,311.5 485.5,311.5C 485.5,351.5 485.5,391.5 485.5,431.5C 484.688,434.275 483.021,436.442 480.5,438C 396.999,438.832 313.666,438.666 230.5,437.5C 313.308,437.997 395.975,437.497 478.5,436C 395.666,435.168 312.999,435.334 230.5,436.5C 228.833,436.5 227.167,436.5 225.5,436.5C 222.495,434.723 219.162,433.723 215.5,433.5C 187.198,422.589 169.865,402.256 163.5,372.5C 162.629,364.2 162.295,355.867 162.5,347.5C 168.23,318.052 184.897,297.385 212.5,285.5C 217.165,284.943 221.498,283.61 225.5,281.5C 236.996,281.885 247.996,279.719 258.5,275C 266.35,269.979 270.683,262.812 271.5,253.5C 272.163,251.527 272.496,249.361 272.5,247C 272.672,243.523 272.006,240.356 270.5,237.5C 265.968,226.717 257.968,219.884 246.5,217C 217.849,218.252 194.682,207.752 177,185.5C 172.766,179.698 169.599,173.364 167.5,166.5C 167.204,164.597 166.537,162.93 165.5,161.5C 165.634,159.708 165.301,158.042 164.5,156.5C 164.59,153.848 163.924,151.515 162.5,149.5C 162.5,148.167 162.5,146.833 162.5,145.5C 162.354,137.804 162.687,130.138 163.5,122.5C 169.669,95.0006 185.669,75.6673 211.5,64.5C 215.767,63.7444 219.767,62.411 223.5,60.5C 233.482,59.7433 243.482,59.41 253.5,59.5 Z"/></g>
<g><path style="opacity:1" fill="#d0d0d0" d="M 360.5,62.5 C 359.64,66.4338 359.307,70.4338 359.5,74.5C 356.5,74.5 353.5,74.5 350.5,74.5C 352.948,73.5269 355.615,73.1936 358.5,73.5C 358.335,70.1501 358.502,66.8168 359,63.5C 359.383,62.944 359.883,62.6107 360.5,62.5 Z"/></g>
<g><path style="opacity:1" fill="#626262" d="M 236.5,90.5 C 234.485,91.9238 232.152,92.5905 229.5,92.5C 231.515,91.0762 233.848,90.4095 236.5,90.5 Z"/></g>
<g><path style="opacity:1" fill="#a0a0a0" d="M 513.5,89.5 C 517.5,89.5 521.5,89.5 525.5,89.5C 525.5,97.8333 525.5,106.167 525.5,114.5C 492.833,114.5 460.167,114.5 427.5,114.5C 459.662,113.502 491.996,113.168 524.5,113.5C 524.5,105.833 524.5,98.1667 524.5,90.5C 520.629,90.815 516.962,90.4816 513.5,89.5 Z"/></g>
<g><path style="opacity:1" fill="#717171" d="M 196.5,121.5 C 196.59,124.152 195.924,126.485 194.5,128.5C 194.41,125.848 195.076,123.515 196.5,121.5 Z"/></g>
<g><path style="opacity:1" fill="#9e9e9e" d="M 180.5,119.5 C 180.59,122.152 179.924,124.485 178.5,126.5C 178.41,123.848 179.076,121.515 180.5,119.5 Z"/></g>
<g><path style="opacity:1" fill="#aaaaaa" d="M 348.5,129.5 C 357.5,129.5 366.5,129.5 375.5,129.5C 375.5,145.5 375.5,161.5 375.5,177.5C 369.167,177.5 362.833,177.5 356.5,177.5C 362.31,176.51 368.31,176.177 374.5,176.5C 374.5,161.167 374.5,145.833 374.5,130.5C 365.651,130.826 356.984,130.493 348.5,129.5 Z"/></g>
<g><path style="opacity:1" fill="#bfbfbf" d="M 427.5,129.5 C 452.167,129.5 476.833,129.5 501.5,129.5C 501.5,145.167 501.5,160.833 501.5,176.5C 501.167,176.5 500.833,176.5 500.5,176.5C 500.5,161.167 500.5,145.833 500.5,130.5C 475.994,130.831 451.661,130.498 427.5,129.5 Z"/></g>
<g><path style="opacity:1" fill="#8e8e8e" d="M 535.5,129.5 C 529.69,130.49 523.69,130.823 517.5,130.5C 517.5,145.833 517.5,161.167 517.5,176.5C 523.69,176.177 529.69,176.51 535.5,177.5C 529.167,177.5 522.833,177.5 516.5,177.5C 516.5,161.5 516.5,145.5 516.5,129.5C 522.833,129.5 529.167,129.5 535.5,129.5 Z"/></g>
<g><path style="opacity:1" fill="#acacac" d="M 163.5,122.5 C 162.687,130.138 162.354,137.804 162.5,145.5C 161.835,142.518 161.502,139.352 161.5,136C 161.308,131.228 161.975,126.728 163.5,122.5 Z"/></g>
<g><path style="opacity:1" fill="#949494" d="M 162.5,149.5 C 163.924,151.515 164.59,153.848 164.5,156.5C 163.076,154.485 162.41,152.152 162.5,149.5 Z"/></g>
<g><path style="opacity:1" fill="#a6a6a6" d="M 165.5,161.5 C 166.537,162.93 167.204,164.597 167.5,166.5C 165.787,165.365 165.12,163.698 165.5,161.5 Z"/></g>
<g><path style="opacity:1" fill="#ababab" d="M 408.5,129.5 C 403.025,130.489 397.358,130.822 391.5,130.5C 391.5,145.833 391.5,161.167 391.5,176.5C 427.833,176.5 464.167,176.5 500.5,176.5C 500.833,176.5 501.167,176.5 501.5,176.5C 464.67,177.498 427.67,177.832 390.5,177.5C 390.5,161.5 390.5,145.5 390.5,129.5C 396.5,129.5 402.5,129.5 408.5,129.5 Z"/></g>
<g><path style="opacity:1" fill="#727272" d="M 225.5,182.5 C 228.152,182.41 230.485,183.076 232.5,184.5C 229.848,184.59 227.515,183.924 225.5,182.5 Z"/></g>
<g><path style="opacity:1" fill="#787878" d="M 232.5,184.5 C 240.411,184.079 248.077,184.745 255.5,186.5C 247.656,186.18 239.989,185.513 232.5,184.5 Z"/></g>
<g><path style="opacity:1" fill="#202020" d="M 535.5,178.5 C 537.404,178.738 538.738,179.738 539.5,181.5C 539.667,208.502 539.5,235.502 539,262.5C 538.667,235.833 538.333,209.167 538,182.5C 537.5,181.333 536.667,180.5 535.5,180C 511.509,179.167 511.509,178.667 535.5,178.5 Z"/></g>
<g><path style="opacity:1" fill="#6c6c6c" d="M 255.5,186.5 C 258.152,186.41 260.485,187.076 262.5,188.5C 259.848,188.59 257.515,187.924 255.5,186.5 Z"/></g>
<g><path style="opacity:1" fill="#f0f0f0" d="M 367.5,193.5 C 420.003,193.168 472.336,193.501 524.5,194.5C 472.5,194.5 420.5,194.5 368.5,194.5C 368.83,214.674 368.497,234.674 367.5,254.5C 367.5,234.167 367.5,213.833 367.5,193.5 Z"/></g>
<g><path style="opacity:1" fill="#fdfdfd" d="M 524.5,194.5 C 524.5,215.167 524.5,235.833 524.5,256.5C 491.832,256.333 459.165,256.5 426.5,257C 421.076,262.275 421.41,267.109 427.5,271.5C 456.833,272.167 486.167,272.833 515.5,273.5C 509.962,280.727 504.296,287.894 498.5,295C 463.495,295.833 428.495,295.667 393.5,294.5C 388.159,287.167 382.492,280.167 376.5,273.5C 387.5,272.833 398.5,272.167 409.5,271.5C 413.746,269.003 415.246,265.336 414,260.5C 412.786,258.951 411.286,257.785 409.5,257C 395.131,257.153 381.131,256.32 367.5,254.5C 368.497,234.674 368.83,214.674 368.5,194.5C 420.5,194.5 472.5,194.5 524.5,194.5 Z"/></g>
<g><path style="opacity:1" fill="#949494" d="M 367.5,193.5 C 419.997,192.501 472.664,192.168 525.5,192.5C 525.831,214.007 525.497,235.34 524.5,256.5C 524.5,235.833 524.5,215.167 524.5,194.5C 472.336,193.501 420.003,193.168 367.5,193.5 Z"/></g>
<g><path style="opacity:1" fill="#a9a9a9" d="M 214.5,195.5 C 218.767,196.256 222.767,197.589 226.5,199.5C 222.085,199.139 218.085,197.806 214.5,195.5 Z"/></g>
<g><path style="opacity:1" fill="#a0a0a0" d="M 226.5,199.5 C 235.871,199.907 245.205,200.741 254.5,202C 255.056,202.383 255.389,202.883 255.5,203.5C 245.681,202.343 236.014,201.01 226.5,199.5 Z"/></g>
<g><path style="opacity:1" fill="#a6a6a6" d="M 298.5,221.5 C 300.806,225.085 302.139,229.085 302.5,233.5C 300.589,229.767 299.256,225.767 298.5,221.5 Z"/></g>
<g><path style="opacity:1" fill="#929292" d="M 302.5,233.5 C 303.979,237.909 304.646,242.576 304.5,247.5C 304.498,250.686 304.165,253.686 303.5,256.5C 303.477,248.817 303.143,241.15 302.5,233.5 Z"/></g>
<g><path style="opacity:1" fill="#bcbcbc" d="M 319.5,237.5 C 320.655,244.321 320.821,251.321 320,258.5C 319.885,263.232 318.718,267.566 316.5,271.5C 318.9,260.318 319.9,248.985 319.5,237.5 Z"/></g>
<g><path style="opacity:1" fill="#bdbdbd" d="M 270.5,237.5 C 272.006,240.356 272.672,243.523 272.5,247C 272.496,249.361 272.163,251.527 271.5,253.5C 271.608,248.13 271.275,242.797 270.5,237.5 Z"/></g>
<g><path style="opacity:1" fill="#a0a0a0" d="M 302.5,264.5 C 302.34,266.153 301.674,267.486 300.5,268.5C 300.229,266.62 300.896,265.287 302.5,264.5 Z"/></g>
<g><path style="opacity:1" fill="#797979" d="M 409.5,271.5 C 398.5,272.167 387.5,272.833 376.5,273.5C 375.957,273.44 375.624,273.107 375.5,272.5C 386.814,271.501 398.147,271.168 409.5,271.5 Z"/></g>
<g><path style="opacity:1" fill="#797979" d="M 427.5,271.5 C 457.174,271.167 486.841,271.5 516.5,272.5C 516.376,273.107 516.043,273.44 515.5,273.5C 486.167,272.833 456.833,272.167 427.5,271.5 Z"/></g>
<g><path style="opacity:1" fill="#5e5e5e" d="M 225.5,281.5 C 221.498,283.61 217.165,284.943 212.5,285.5C 216.502,283.39 220.835,282.057 225.5,281.5 Z"/></g>
<g><path style="opacity:1" fill="#a8a8a8" d="M 255.5,293.5 C 253.189,295.068 250.522,295.902 247.5,296C 240.5,296.577 233.5,297.077 226.5,297.5C 235.983,295.902 245.65,294.569 255.5,293.5 Z"/></g>
<g><path style="opacity:1" fill="#a6a6a6" d="M 226.5,297.5 C 224.485,298.924 222.152,299.59 219.5,299.5C 221.515,298.076 223.848,297.41 226.5,297.5 Z"/></g>
<g><path style="opacity:1" fill="#636363" d="M 257.5,309.5 C 255.485,310.924 253.152,311.59 250.5,311.5C 252.515,310.076 254.848,309.41 257.5,309.5 Z"/></g>
<g><path style="opacity:1" fill="#c3c3c3" d="M 422.5,311.5 C 437.17,311.333 451.837,311.5 466.5,312C 465.956,312.717 465.289,313.217 464.5,313.5C 451.01,312.504 437.344,312.171 423.5,312.5C 422.868,320.573 423.535,328.24 425.5,335.5C 425.5,336.167 425.167,336.5 424.5,336.5C 422.532,328.567 421.865,320.234 422.5,311.5 Z"/></g>
<g><path style="opacity:1" fill="#575757" d="M 422.5,311.5 C 421.865,320.234 422.532,328.567 424.5,336.5C 423.791,337.404 422.791,337.737 421.5,337.5C 421.174,328.651 421.507,319.984 422.5,311.5 Z"/></g>
<g><path style="opacity:1" fill="#fbfbfb" d="M 464.5,313.5 C 451.517,320.805 438.517,328.139 425.5,335.5C 423.535,328.24 422.868,320.573 423.5,312.5C 437.344,312.171 451.01,312.504 464.5,313.5 Z"/></g>
<g><path style="opacity:1" fill="#fafafa" d="M 468.5,329.5 C 469.494,338.652 469.827,347.985 469.5,357.5C 454.699,366.404 439.699,375.071 424.5,383.5C 423.506,374.348 423.173,365.015 423.5,355.5C 438.002,346.079 453.002,337.412 468.5,329.5 Z"/></g>
<g><path style="opacity:1" fill="#858585" d="M 468.5,329.5 C 468.56,328.957 468.893,328.624 469.5,328.5C 470.823,338.325 470.823,347.992 469.5,357.5C 469.827,347.985 469.494,338.652 468.5,329.5 Z"/></g>
<g><path style="opacity:1" fill="#aeaeae" d="M 181.5,337.5 C 181.59,340.152 180.924,342.485 179.5,344.5C 179.41,341.848 180.076,339.515 181.5,337.5 Z"/></g>
<g><path style="opacity:1" fill="#757575" d="M 196.5,342.5 C 196.59,345.152 195.924,347.485 194.5,349.5C 194.41,346.848 195.076,344.515 196.5,342.5 Z"/></g>
<g><path style="opacity:1" fill="#a7a7a7" d="M 162.5,347.5 C 162.295,355.867 162.629,364.2 163.5,372.5C 162.732,371.737 162.232,370.737 162,369.5C 161.178,361.988 161.345,354.655 162.5,347.5 Z"/></g>
<g><path style="opacity:1" fill="#535353" d="M 422.5,355.5 C 421.86,365.558 422.527,375.225 424.5,384.5C 423.791,385.404 422.791,385.737 421.5,385.5C 421.173,375.319 421.506,365.319 422.5,355.5 Z"/></g>
<g><path style="opacity:1" fill="#d4d4d4" d="M 422.5,355.5 C 422.833,355.5 423.167,355.5 423.5,355.5C 423.173,365.015 423.506,374.348 424.5,383.5C 424.5,383.833 424.5,384.167 424.5,384.5C 422.527,375.225 421.86,365.558 422.5,355.5 Z"/></g>
<g><path style="opacity:1" fill="#c7c7c7" d="M 503.5,311.5 C 498.025,312.489 492.358,312.822 486.5,312.5C 486.832,352.337 486.499,392.004 485.5,431.5C 485.5,391.5 485.5,351.5 485.5,311.5C 491.5,311.5 497.5,311.5 503.5,311.5 Z"/></g>
<g><path style="opacity:1" fill="#fbfbfb" d="M 468.5,376.5 C 469.496,391.324 469.829,406.324 469.5,421.5C 454.167,421.5 438.833,421.5 423.5,421.5C 423.5,415.167 423.5,408.833 423.5,402.5C 438.337,393.581 453.337,384.914 468.5,376.5 Z"/></g>
<g><path style="opacity:1" fill="#838383" d="M 468.5,376.5 C 468.56,375.957 468.893,375.624 469.5,375.5C 470.827,391.328 470.827,406.995 469.5,422.5C 469.5,422.167 469.5,421.833 469.5,421.5C 469.829,406.324 469.496,391.324 468.5,376.5 Z"/></g>
<g><path style="opacity:1" fill="#b0b0b0" d="M 220.5,418.5 C 223.152,418.41 225.485,419.076 227.5,420.5C 224.848,420.59 222.515,419.924 220.5,418.5 Z"/></g>
<g><path style="opacity:1" fill="#cccccc" d="M 423.5,402.5 C 423.5,408.833 423.5,415.167 423.5,421.5C 438.833,421.5 454.167,421.5 469.5,421.5C 469.5,421.833 469.5,422.167 469.5,422.5C 453.833,422.5 438.167,422.5 422.5,422.5C 422.176,415.646 422.509,408.979 423.5,402.5 Z"/></g>
<g><path style="opacity:1" fill="#222222" d="M 227.5,421.5 C 231.135,422.114 234.802,422.448 238.5,422.5C 294.332,423.333 350.332,423.833 406.5,424C 349.5,424.667 292.5,424.667 235.5,424C 232.377,423.794 229.377,423.127 226.5,422C 226.728,421.601 227.062,421.435 227.5,421.5 Z"/></g>
<g><path style="opacity:1" fill="#818181" d="M 215.5,433.5 C 219.162,433.723 222.495,434.723 225.5,436.5C 221.838,436.277 218.505,435.277 215.5,433.5 Z"/></g>
<g><path style="opacity:1" fill="#262626" d="M 230.5,437.5 C 230.5,437.167 230.5,436.833 230.5,436.5C 312.999,435.334 395.666,435.168 478.5,436C 395.975,437.497 313.308,437.997 230.5,437.5 Z"/></g>
</svg>
