<?xml version="1.0" encoding="UTF-8" standalone="no"?>

<svg
   viewBox="0 0 100 100"
   version="1.1"
   xmlns="http://www.w3.org/2000/svg"
   xmlns:svg="http://www.w3.org/2000/svg">
   <g
       transform="matrix(0.26458333,0,0,0.26458333,-42.712861,-15.143595)">
      <path
         fill="#338000"
         d="m 253.5,59.5 c 16.657,5.3138 22.157,16.3138 16.5,33 -2.962,6.2924 -7.795,10.459 -14.5,12.5 -20.008,-3.077 -34.841,4.09 -44.5,21.5 -4.443,19.015 2.057,32.848 19.5,41.5 22.739,-0.153 43.406,6.181 62,19 15.17,13.505 24.17,30.339 27,50.5 0.4,11.485 -0.6,22.818 -3,34 -9.149,25.982 -26.816,43.482 -53,52.5 -11.669,2.151 -23.336,4.151 -35,6 -16.44,8.282 -22.274,21.449 -17.5,39.5 3.596,10.596 10.762,17.429 21.5,20.5 53.333,0.333 106.667,0.667 160,1 6.807,3.272 7.807,7.938 3,14 -54.584,1.658 -109.251,1.991 -164,1 -27.763,-8.684 -40.096,-27.518 -37,-56.5 1.424,-2.015 2.09,-4.348 2,-7 10.341,-23.183 28.341,-33.517 54,-31 2.652,0.09 4.985,-0.576 7,-2 21.228,-6.564 35.561,-20.23 43,-41 1.174,-1.014 1.84,-2.347 2,-4 0.592,-2.627 0.925,-5.294 1,-8 0.665,-2.814 0.998,-5.814 1,-9 0.146,-4.924 -0.521,-9.591 -2,-14 -0.361,-4.415 -1.694,-8.415 -4,-12 -6.919,-16.588 -18.919,-27.588 -36,-33 -2.015,-1.424 -4.348,-2.09 -7,-2 -7.423,-1.755 -15.089,-2.421 -23,-2 -2.015,-1.424 -4.348,-2.09 -7,-2 -23.766,-10.189 -34.099,-28.189 -31,-54 1.424,-2.015 2.09,-4.348 2,-7 6.34,-15.009 17.34,-24.6756 33,-29 2.652,0.0905 4.985,-0.5762 7,-2 5.011,0.1659 10.011,-7e-4 15,-0.5 4.569,-2.5414 6.069,-6.3747 4.5,-11.5 -1.214,-1.5488 -2.714,-2.7155 -4.5,-3.5 -32.108,-3.1978 -55.275,9.6355 -69.5,38.5 -0.813,1.936 -1.313,3.936 -1.5,6 -1.424,2.015 -2.09,4.348 -2,7 -3.322,23.527 3.678,43.694 21,60.5 4.73,3.364 9.73,6.197 15,8.5 3.585,2.306 7.585,3.639 12,4 9.514,1.51 19.181,2.843 29,4 23.747,9.61 34.58,27.277 32.5,53 -4.003,18.493 -14.836,30.827 -32.5,37 -9.85,1.069 -19.517,2.402 -29,4 -2.652,-0.09 -4.985,0.576 -7,2 -18.359,7.026 -31.026,19.692 -38,38 -1.424,2.015 -2.09,4.348 -2,7 -5.397,26.634 2.603,48.467 24,65.5 5.131,3.899 10.798,6.732 17,8.5 2.015,1.424 4.348,2.09 7,2 0,0.333 0,0.667 0,1 -0.438,-0.065 -0.772,0.101 -1,0.5 2.877,1.127 5.877,1.794 9,2 57,0.667 114,0.667 171,0 -56.168,-0.167 -112.168,-0.667 -168,-1.5 56,0 112,0 168,0 0,-37 0,-74 0,-111 -6.342,0.166 -12.675,0 -19,-0.5 -12.192,-14.225 -24.026,-28.725 -35.5,-43.5 -0.667,-28.667 -0.667,-57.333 0,-86 1.371,-1.541 2.871,-2.875 4.5,-4 6.333,0 12.667,0 19,0 0,-16 0,-32 0,-48 -9,0 -18,0 -27,0 -2.004,-1.173 -3.504,-2.84 -4.5,-5 -0.667,-15.333 -0.667,-30.6667 0,-46 1.638,-2.2337 3.805,-3.567 6.5,-4 3,0 6,0 9,0 -0.193,-4.0662 0.14,-8.0662 1,-12 0.333,-1 1,-1.6667 2,-2 2.596,-0.7653 5.263,-1.0987 8,-1 1.629,1.1253 3.129,2.4586 4.5,4 0.667,7 0.667,14 0,21 -1.167,2.5 -3,4.3333 -5.5,5.5 -3.317,0.4983 -6.65,0.665 -10,0.5 0,8 0,16 0,24 16.67,-0.167 33.337,0 50,0.5 5.126,2.553 6.293,6.386 3.5,11.5 -1.271,1.383 -2.771,2.383 -4.5,3 -6,0 -12,0 -18,0 0,16 0,32 0,48 37.17,0.332 74.17,-0.002 111,-1 0,-15.667 0,-31.333 0,-47 -24.667,0 -49.333,0 -74,0 -6.577,-5.082 -6.577,-10.082 0,-15 32.667,0 65.333,0 98,0 0,-8.333 0,-16.6667 0,-25 -4,0 -8,0 -12,0 -0.929,-1.4361 -2.095,-2.7695 -3.5,-4 -0.667,-7.6667 -0.667,-15.3333 0,-23 0.383,-0.556 0.883,-0.8893 1.5,-1 2.715,-1.623 5.715,-2.2896 9,-2 1.629,1.1253 3.129,2.4586 4.5,4 0.499,3.6516 0.665,7.3183 0.5,11 3.35,-0.165 6.683,0.0017 10,0.5 1.786,0.7845 3.286,1.9512 4.5,3.5 0.667,15.6667 0.667,31.333 0,47 -1.371,1.541 -2.871,2.875 -4.5,4 -6.333,0 -12.667,0 -19,0 0,16 0,32 0,48 6.333,0 12.667,0 19,0 0,0.333 0,0.667 0,1 -23.991,0.167 -23.991,0.667 0,1.5 1.167,0.5 2,1.333 2.5,2.5 0.333,26.667 0.667,53.333 1,80 0.5,-26.998 0.667,-53.998 0.5,-81 1.164,28.83 1.33,57.83 0.5,87 -10.667,13.333 -21.333,26.667 -32,40 -1.271,1.383 -2.771,2.383 -4.5,3 -6,0 -12,0 -18,0 0,40 0,80 0,120 -0.812,2.775 -2.479,4.942 -5,6.5 -83.501,0.832 -166.834,0.666 -250,-0.5 82.808,0.497 165.475,-0.003 248,-1.5 -82.834,-0.832 -165.501,-0.666 -248,0.5 -1.667,0 -3.333,0 -5,0 -3.005,-1.777 -6.338,-2.777 -10,-3 -28.302,-10.911 -45.635,-31.244 -52,-61 -0.871,-8.3 -1.205,-16.633 -1,-25 5.73,-29.448 22.397,-50.115 50,-62 4.665,-0.557 8.998,-1.89 13,-4 11.496,0.385 22.496,-1.781 33,-6.5 7.85,-5.021 12.183,-12.188 13,-21.5 0.663,-1.973 0.996,-4.139 1,-6.5 0.172,-3.477 -0.494,-6.644 -2,-9.5 -4.532,-10.783 -12.532,-17.616 -24,-20.5 -28.651,1.252 -51.818,-9.248 -69.5,-31.5 -4.234,-5.802 -7.401,-12.136 -9.5,-19 -0.296,-1.903 -0.963,-3.57 -2,-5 0.134,-1.792 -0.199,-3.458 -1,-5 0.09,-2.652 -0.576,-4.985 -2,-7 0,-1.333 0,-2.667 0,-4 -0.146,-7.696 0.187,-15.362 1,-23 6.169,-27.4994 22.169,-46.8327 48,-58 4.267,-0.7556 8.267,-2.089 12,-4 9.982,-0.7567 19.982,-1.09 30,-1 z"
      />
    </g>
</svg>
