<?xml version="1.0" encoding="UTF-8" standalone="no"?>
<svg
   viewBox="0 0 120 150"
   version="1.1"
   id="svg1"
   sodipodi:docname="4.svg"
   inkscape:version="1.4 (86a8ad7, 2024-10-11)"
   xmlns:inkscape="http://www.inkscape.org/namespaces/inkscape"
   xmlns:sodipodi="http://sodipodi.sourceforge.net/DTD/sodipodi-0.dtd"
   xmlns="http://www.w3.org/2000/svg"
   xmlns:svg="http://www.w3.org/2000/svg">
  <defs
     id="defs1" />
  <sodipodi:namedview
     id="namedview1"
     pagecolor="#ffffff"
     bordercolor="#000000"
     borderopacity="0.25"
     inkscape:showpageshadow="2"
     inkscape:pageopacity="0.0"
     inkscape:pagecheckerboard="0"
     inkscape:deskcolor="#d1d1d1"
     inkscape:zoom="5.6568542"
     inkscape:cx="99.083339"
     inkscape:cy="76.102368"
     inkscape:window-width="2560"
     inkscape:window-height="1351"
     inkscape:window-x="-9"
     inkscape:window-y="1491"
     inkscape:window-maximized="1"
     inkscape:current-layer="svg1"
     showgrid="true">
    <inkscape:grid
       id="grid8"
       units="px"
       originx="0"
       originy="0"
       spacingx="1"
       spacingy="1"
       empcolor="#0099e5"
       empopacity="0.30196078"
       color="#0099e5"
       opacity="0.14901961"
       empspacing="5"
       enabled="true"
       visible="true" />
  </sodipodi:namedview>
  <g
     id="g8"
     style="clip-rule:evenodd;display:inline;fill:#000000;fill-rule:evenodd;image-rendering:optimizeQuality;shape-rendering:geometricPrecision;text-rendering:geometricPrecision"
     transform="matrix(0.26458333,0,0,0.26458333,-63.426402,0.95902156)"
     inkscape:label="stand">
    <path
       style="display:inline;opacity:1;fill:#000000"
       fill="#040404"
       d="m 361.65252,476.52698 -10.47358,-0.2281 c 0,0 -9.73074,-12.21002 -14.84156,-15.81618 -3.70453,-2.6139 -7.58244,-5.08107 -12.3287,-6.81349 -5.31909,-1.9415 -11.72876,-2.9602 -20.20718,-2.22843 0,0 -12.87875,1.81404 -12.88165,1.81541 l -11.00452,5.20979 -13.03514,10.8736 -11.4714,14.86111 -4.09784,18.70108 108.48692,-0.61605 -6.33557,-18.53438 -54.48687,-0.29071 0.34174,-7.0304 52.08351,-0.1157 9.99548,0.18672 c 0,0 0.46318,-1.05747 4.18998,8.98092 2.33423,6.28742 3.63105,15.77201 4.25359,18.94202 -0.128,2.455 -1.46773,5.53081 -3.33973,7.07581 h -123 c -2.394,-1.832 -3.394,-4.332 -3,-7.5 0.672,-8.519 2.672,-16.686 6,-24.5 8.421,-15.415 20.755,-26.748 37,-34 9.099,-2.064 18.266,-3.397 27.5,-4 5.53339,0.45141 13.0508,1.08554 17.72648,4.05611 l 9.33424,5.02566 8.11152,6.49247 c 14.22692,14.40132 15.00309,18.51044 15.48028,19.45274 z"
       id="path8"
       sodipodi:nodetypes="ccssccccccccccccsccccccccccc"
       inkscape:label="pStand" />
  </g>
  <g
     id="g1"
     style="clip-rule:evenodd;display:inline;fill:#000000;fill-rule:evenodd;image-rendering:optimizeQuality;shape-rendering:geometricPrecision;text-rendering:geometricPrecision"
     transform="matrix(0.26458333,0,0,0.26458333,-63.426402,0.95902156)"
     inkscape:label="rod1">
    <path
       style="fill:#000000;stroke:none;stroke-opacity:1"
       d="m 27.723131,121.77691 -8.879148,-4.03079 21.637881,-44.030238 8.165789,5.19681 -0.805876,1.608694 -6.607004,-4.095502 -19.425542,40.018346 4.931751,2.3547 19.529898,-39.160347 1.59141,0.927396"
       id="path9"
       sodipodi:nodetypes="cccccccccc"
       transform="matrix(3.7795276,0,0,3.7795276,239.72184,-3.6246485)" />
  </g>
  <g
     id="g2"
     style="clip-rule:evenodd;display:inline;fill:#000000;fill-rule:evenodd;image-rendering:optimizeQuality;shape-rendering:geometricPrecision;text-rendering:geometricPrecision"
     transform="matrix(0.26458333,0,0,0.26458333,-63.426402,0.95902156)"
     inkscape:label="hinge1">
    <path
       style="opacity:1;fill:#000000"
       fill="#040404"
       d="m 422.5,227.5 c 22.983,4.295 33.317,17.962 31,41 -0.0855,0.30115 -0.98079,4.37462 -2.7822,8.33524 -1.25615,2.7618 -4.74315,7.27819 -4.74315,7.27819 l -6.93617,6.40333 -3.28293,1.29898 -7.05472,2.60021 -5.14791,0.0781 c -0.0708,-5.2e-4 5.67249,-4.0344 5.67249,-4.0344 l 9.25285,-6.42062 4.44459,-4.95383 4.09652,-6.3046 1.62707,-5.96998 0.2509,-6.47813 -0.61671,-5.05908 -1.32621,-5.12151 -1.92158,-4.19068 -2.78167,-3.52173 -3.15333,-2.79284 -5.3829,-3.249 -6.39691,-1.87599 -5.80013,-0.33279 -6.05448,0.59041 -7.03096,1.22892 c -2.98217,0.84373 -4.13586,2.05315 -5.18723,3.28304 -2.56024,1.75226 -6.40188,9.68403 -6.56672,10.19273 -1.35575,4.1839 -2.07102,8.30038 -1.93142,12.32687 l 1.12458,6.04509 2.28362,5.00548 4.91436,4.21233 5.28077,2.82839 18.18015,8.83546 c 0,0 2.46348,1.71834 2.62877,1.67672 C 428.98538,290.57684 426.57,293.623 423.5,294.5 l -31,-19 c -3.882,-9.566 -5.21826,-18.39787 -1.33626,-27.83187 C 396.34555,228.03569 422.5,227.5 422.5,227.5 Z"
       id="path2"
       sodipodi:nodetypes="ccsccccccccccccccccccccccsccccccccccc" />
  </g>
  <g
     id="g3"
     style="clip-rule:evenodd;display:inline;fill:#000000;fill-rule:evenodd;image-rendering:optimizeQuality;shape-rendering:geometricPrecision;text-rendering:geometricPrecision"
     transform="matrix(0.26458333,0,0,0.26458333,-63.426402,0.95902156)"
     inkscape:label="rod2">
    <path
       style="opacity:1;fill:#000000"
       fill="#040404"
       d="M 342,61.5 435.07087,233.63386 398.17724,235.8978 307.77953,70.862205 Z"
       id="path3"
       sodipodi:nodetypes="ccccc" />
  </g>
  <g
     id="g4"
     style="clip-rule:evenodd;display:inline;fill:#000000;fill-rule:evenodd;image-rendering:optimizeQuality;shape-rendering:geometricPrecision;text-rendering:geometricPrecision"
     transform="matrix(0.26458333,0,0,0.26458333,-63.426402,0.95902156)"
     inkscape:label="hinge2">
    <path
       style="display:inline;opacity:1;fill:#000000"
       fill="#040404"
       d="m 304,68.5 c 0,0 -9.95412,-5.278938 -14.20416,-15.902281 C 285.89478,42.846663 287.39471,28.146436 293,18.5 305.299,5.54484 319.466,3.04484 335.5,11 c 3.814,2.6465 7.147,5.8132 10,9.5 2.414,4.163363 5.68261,31.802901 -5.32438,42.786462 C 329.22279,74.215991 304,68.5 304,68.5 Z"
       id="path4"
       sodipodi:nodetypes="cscccsc" />
  </g>
  <g
     id="g5"
     style="clip-rule:evenodd;display:inline;fill:#d4aa00;fill-rule:evenodd;image-rendering:optimizeQuality;shape-rendering:geometricPrecision;text-rendering:geometricPrecision"
     transform="matrix(0.26458333,0,0,0.26458333,-63.426402,0.95902156)"
     inkscape:label="rod3">
    <path
       style="display:inline;opacity:1;fill:#00ff00"
       fill="#040404"
       d="m 576.5,56.5 c -77.001,-0.1667 -154.001,0 -231,0.5 1.05687,-3.136081 0,-36.5 0,-36.5 76.997,1 153.997,1.3333 231,1 0,0 -0.167,34.92406 0,35 z"
       id="path5"
       sodipodi:nodetypes="ccccc" />
  </g>
  <g
     id="g6"
     style="clip-rule:evenodd;display:inline;fill:#d4aa00;fill-rule:evenodd;image-rendering:optimizeQuality;shape-rendering:geometricPrecision;text-rendering:geometricPrecision"
     transform="matrix(0.26458333,0,0,0.2773127,-63.426402,0.96613802)"
     inkscape:label="lazer">
    <path
       style="display:inline;opacity:1;fill:#000080"
       fill="#040404"
       d="M 576.84646,-0.55905512 678.9252,-0.5 l -0.52556,121.69453 -15.31283,-0.10772 c 0.167,-0.0268 -0.16593,37.99121 -0.16593,37.99121 l -3.67143,3.75495 -11.16483,-0.16814 0.0846,37.25275 c -4.0109,7.53015 -9.44249,7.64889 -20.88901,7.83297 -10.28678,-0.0509 -17.22307,-0.44708 -20.86704,-7.5011 l 0.16813,-37.58462 -11.54957,-0.19041 -3.79683,-3.67123 0.0245,-37.75517 -14.52192,0.0637 z"
       id="path6"
       sodipodi:nodetypes="cccccccccccccccc" />
  </g>
  <g
     id="g7"
     style="clip-rule:evenodd;display:inline;fill:#d4aa00;fill-rule:evenodd;image-rendering:optimizeQuality;shape-rendering:geometricPrecision;text-rendering:geometricPrecision"
     transform="matrix(0.26458333,0,0,0.26458333,-63.426402,0.95902156)"
     inkscape:label="beam1">
    <path
       style="display:inline;opacity:1;fill:#800000"
       fill="#040404"
       d="m 632.33297,217.4978 c -1.331,51.835 -1.16397,104.8372 0.16703,157.0022 0.607,-0.124 0.94,-0.457 1,-1 4.464,-3.963 8.798,-8.13 13,-12.5 4.996,-0.664 6.83,1.502 5.5,6.5 L 638.5,381 c 6.667,0.333 13.333,0.667 20,1 3.565,2.178 3.899,4.844 1,8 -7,0.333 -14,0.667 -21,1 l 13.5,13.5 c 0.899,6.432 -1.601,8.265 -7.5,5.5 L 632,397.5 c -0.203,7.079 -0.703,14.079 -1.5,21 -0.667,0.333 -1.333,0.667 -2,1 -2.738,0.535 -4.572,-0.465 -5.5,-3 -0.17,-6.028 -0.67,-12.028 -1.5,-18 -4.485,3.985 -8.818,8.151 -13,12.5 -4.35,0.645 -6.517,-1.188 -6.5,-5.5 L 616.5,391 c -7.412,-0.201 -14.746,-0.701 -22,-1.5 -1.548,-2.758 -1.215,-5.258 1,-7.5 7,-0.333 14,-0.667 21,-1 -6.15,-4.143 -10.817,-9.476 -14,-16 0.405,-3.739 2.405,-5.073 6,-4 3.869,4.037 7.869,7.87 12,11.5 0.283,0.789 0.783,1.456 1.5,2 0.667,-52.333 0.667,-104.667 0,-157 z"
       id="path7"
       sodipodi:nodetypes="cccccccccccccccccccccccccccc" />
  </g>
  <g
     id="g20"
     style="clip-rule:evenodd;display:inline;fill:#d4aa00;fill-rule:evenodd;image-rendering:optimizeQuality;shape-rendering:geometricPrecision;text-rendering:geometricPrecision"
     inkscape:label="beam2"
     transform="matrix(0.26458333,0,0,0.26458333,-63.426402,0.95902156)">
    <path
       style="display:inline;opacity:1;fill:#ff0000"
       fill="#040404"
       d="m 632.5,374.5 c 0.607,-0.124 0.94,-0.457 1,-1 4.464,-3.963 8.798,-8.13 13,-12.5 4.996,-0.664 6.83,1.502 5.5,6.5 L 638.5,381 c 6.667,0.333 13.333,0.667 20,1 3.565,2.178 3.899,4.844 1,8 -7,0.333 -14,0.667 -21,1 l 13.5,13.5 c 0.899,6.432 -1.601,8.265 -7.5,5.5 L 632,397.5 c -0.203,7.079 -0.703,14.079 -1.5,21 -0.667,0.333 -1.333,0.667 -2,1 -2.738,0.535 -4.572,-0.465 -5.5,-3 -0.17,-6.028 -0.67,-12.028 -1.5,-18 -4.485,3.985 -8.818,8.151 -13,12.5 -4.35,0.645 -6.517,-1.188 -6.5,-5.5 L 616.5,391 c -7.412,-0.201 -14.746,-0.701 -22,-1.5 -1.548,-2.758 -1.215,-5.258 1,-7.5 7,-0.333 14,-0.667 21,-1 -6.15,-4.143 -10.817,-9.476 -14,-16 0.405,-3.739 2.405,-5.073 6,-4 3.869,4.037 7.869,7.87 12,11.5 0.283,0.789 0.783,1.456 1.5,2 0,0 10.58632,0.27595 10.5,0 z"
       id="path20"
       sodipodi:nodetypes="cccccccccccccccccccccccccc" />
  </g>
</svg>
