<?xml version="1.0" encoding="UTF-8" standalone="no"?>

<svg
   viewBox="0 0 120 150"
   version="1.1"
   id="svg1"
   xmlns="http://www.w3.org/2000/svg"
   xmlns:svg="http://www.w3.org/2000/svg">
    
    <g
       id="g20"
       style="clip-rule:evenodd;fill:#d4aa00;fill-rule:evenodd;image-rendering:optimizeQuality;shape-rendering:geometricPrecision;text-rendering:geometricPrecision"
       transform="matrix(0.26458333,0,0,0.26458333,-63.426402,0.95902156)">
      <path
         style="opacity:1;fill:#d4aa00"
         fill="#040404"
         d="m 578.5,-0.5 c 32.333,0 64.667,0 97,0 0.79,0.90128 1.79,1.56795 3,2 0.167,38.3348 0,76.6681 -0.5,115 -0.708,0.881 -1.542,1.547 -2.5,2 -0.667,0 -1,0.333 -1,1 -4.333,0 -8.667,0 -13,0 0.167,14.004 0,28.004 -0.5,42 -0.5,0.5 -1,1 -1.5,1.5 -3.986,0.499 -7.986,0.666 -12,0.5 0.167,12.005 0,24.005 -0.5,36 -4.842,6.363 -9.676,12.697 -14.5,19 -1.331,51.835 -1.331,103.835 0,156 0.607,-0.124 0.94,-0.457 1,-1 4.464,-3.963 8.798,-8.13 13,-12.5 4.996,-0.664 6.83,1.502 5.5,6.5 -4.5,4.5 -9,9 -13.5,13.5 6.667,0.333 13.333,0.667 20,1 3.565,2.178 3.899,4.844 1,8 -7,0.333 -14,0.667 -21,1 4.5,4.5 9,9 13.5,13.5 0.899,6.432 -1.601,8.265 -7.5,5.5 -4.167,-4.167 -8.333,-8.333 -12.5,-12.5 -0.203,7.079 -0.703,14.079 -1.5,21 -0.667,0.333 -1.333,0.667 -2,1 -2.738,0.535 -4.572,-0.465 -5.5,-3 -0.17,-6.028 -0.67,-12.028 -1.5,-18 -4.485,3.985 -8.818,8.151 -13,12.5 -4.35,0.645 -6.517,-1.188 -6.5,-5.5 4.833,-4.833 9.667,-9.667 14.5,-14.5 -7.412,-0.201 -14.746,-0.701 -22,-1.5 -1.548,-2.758 -1.215,-5.258 1,-7.5 7,-0.333 14,-0.667 21,-1 -6.15,-4.143 -10.817,-9.476 -14,-16 0.405,-3.739 2.405,-5.073 6,-4 3.869,4.037 7.869,7.87 12,11.5 0.283,0.789 0.783,1.456 1.5,2 0.667,-52.333 0.667,-104.667 0,-157 -2.669,-3.5 -5.502,-6.833 -8.5,-10 -2,-2.171 -3.834,-4.504 -5.5,-7 -0.5,-12.329 -0.667,-24.662 -0.5,-37 -4.014,0.166 -8.014,-0.001 -12,-0.5 -1.323,-0.816 -1.989,-1.983 -2,-3.5 0,-13.667 0,-27.333 0,-41 -4.667,0 -9.333,0 -14,0 -0.958,-0.453 -1.792,-1.119 -2.5,-2 -0.5,-19.9972 -0.667,-39.9972 -0.5,-60 -77.001,-0.1667 -154.001,0 -231,0.5 -0.804,1.7713 -1.971,3.2713 -3.5,4.5 -0.667,1 -0.667,2 0,3 26.833,54.333 53.667,108.667 80.5,163 22.983,4.295 33.317,17.962 31,41 -3.172,11.171 -10.172,18.838 -21,23 -2.93,1.123 -5.93,2.123 -9,3 -9.742,20.483 -19.742,40.816 -30,61 -5.667,11.333 -11.333,22.667 -17,34 -4.394,9.789 -9.061,19.455 -14,29 -5.333,10.667 -10.667,21.333 -16,32 -1.409,1.805 -1.909,3.805 -1.5,6 15.076,12.818 23.242,29.152 24.5,49 -0.128,2.455 -1.128,4.455 -3,6 -41,0 -82,0 -123,0 -2.394,-1.832 -3.394,-4.332 -3,-7.5 0.672,-8.519 2.672,-16.686 6,-24.5 8.421,-15.415 20.755,-26.748 37,-34 9.099,-2.064 18.266,-3.397 27.5,-4 27.441,-55.216 54.608,-110.549 81.5,-166 -3.882,-9.566 -3.882,-19.066 0,-28.5 C 362.872,187.577 333.372,128.077 304,68.5 284.955,55.3224 281.288,38.6558 293,18.5 305.299,5.54484 319.466,3.04484 335.5,11 c 3.814,2.6465 7.147,5.8132 10,9.5 76.997,1 153.997,1.3333 231,1 -0.166,-6.675 0,-13.34165 0.5,-20 0.717,-0.544204 1.217,-1.21087 1.5,-2 z"
         id="path20" />
    </g>
</svg>
