<svg xmlns="http://www.w3.org/2000/svg" viewBox="0 0 120 150">
  <path fill-rule="evenodd" d="m32.26 127.04-2.77-.06s-2.57-3.23-3.93-4.18c-.98-.7-2-1.35-3.26-1.8-1.4-.52-3.1-.8-5.35-.6l-3.4.48-2.92 1.38-3.44 2.88-3.04 3.93-1.08 4.95 28.7-.16-1.68-4.9-14.41-.09.09-1.86 13.78-.03 2.64.05s.13-.28 1.11 2.38c.62 1.66.96 4.17 1.13 5.01a2.84 2.84 0 0 1-.89 1.87H1a2.02 2.02 0 0 1-.8-1.98c.18-2.25.71-4.42 1.6-6.48a20.26 20.26 0 0 1 9.78-9 46.3 46.3 0 0 1 7.28-1.06c1.46.12 3.45.29 4.69 1.08l2.47 1.33 2.15 1.71c3.76 3.81 3.96 4.9 4.1 5.15z" clip-rule="evenodd" image-rendering="optimizeQuality" shape-rendering="geometricPrecision" text-rendering="geometricPrecision"/>
  <path fill-rule="evenodd" d="m27.72 121.78-8.88-4.03 21.64-44.03 1.6 1.1-.8 1.6h-.05l-20.86 41.6 5.98 2.51 20.7-42.68 1.74 1.06" clip-rule="evenodd" image-rendering="optimizeQuality" shape-rendering="geometricPrecision" text-rendering="geometricPrecision"/>
  <path fill-rule="evenodd" d="M50.48 61.6c2.9.73 6.7 4.3 6.08 10.4-.02.08-.26 1.16-.73 2.2-.34.74-1.26 1.93-1.26 1.93l-1.83 1.7-.87.34-1.87.69-1.36.02c-.02 0 1.28-1.31 1.28-1.31l2.67-1.46 1.17-1.31 1.09-1.67.18-1.69.03-1.67-.14-1.62-.4-1.23c-.24-1.03-1.1-1.76-1.77-2.55-.67-.72-1.29-1.26-2.22-1.32 0 0-7.58 1.64-7.66 1.58-.68.46-1.3 2.2-1.34 2.34-.36 1.1-.4 2-.36 3.06l.34 1.69.65 1.39c2.16 2.12 5.06 3.18 7.75 4.44l-1.26 1.33-8.23-5.03c-1.02-2.53-1.6-4.93-.57-7.43a6.36 6.36 0 0 1 1.9-3.13c.15-.12 7.44-1.85 8.73-1.7zm38.74-45.09-62.58-.13.09-2.06c20.37.27 42.03.1 62.4.02zm.08-7.72-62.6-.13.09-2.06c20.37.27 42.03.1 62.4.02z" clip-rule="evenodd" image-rendering="optimizeQuality" shape-rendering="geometricPrecision" text-rendering="geometricPrecision"/>
  <g fill="#d4aa00" fill-rule="evenodd" clip-rule="evenodd" image-rendering="optimizeQuality" shape-rendering="geometricPrecision" text-rendering="geometricPrecision">
    <path fill="#000" d="m89.2.81 27 .02-.13 33.74-4.05-.02c.04-.01-.05 10.53-.05 10.53l-.97 1.04-2.95-.04.02 10.33c-1.06 2.08-2.5 2.12-5.53 2.17-2.72-.02-4.56-.13-5.52-2.08l.04-10.42-3.05-.06L93 45V34.53l-3.84.02z"/>
    <path fill="#fff" d="M91.4 3.5h22.26l-.11 12.89c-6.1-.02-16.85-.02-22.17-.01zm.12 15.25h22.27l-.12 12.89c-6.1-.02-16.84-.02-22.17-.01zm4.12 15.75h13.77l-.07 9.51H95.62zm3.99 11.88h6.03l-.03 9.63h-6z"/>
    <path fill="#000" d="M90.35 21.5h13.44l-.07 2.73H90.34zm5.51-13.02h13.44l-.07 2.72H95.85z"/>
  </g>
  <path fill="maroon" fill-rule="evenodd" d="M103.88 58.5a816.9 816.9 0 0 0 .04 41.55c.16-.04.25-.13.27-.27a60.42 60.42 0 0 0 3.44-3.3c1.32-.18 1.8.4 1.45 1.71l-3.57 3.58 5.3.26c.93.58 1.02 1.28.26 2.12l-5.56.26 3.57 3.57c.24 1.7-.42 2.19-1.98 1.46l-3.31-3.3a64.78 64.78 0 0 1-.4 5.55l-.53.26c-.72.14-1.2-.12-1.45-.8a44.52 44.52 0 0 0-.4-4.75 60.75 60.75 0 0 0-3.44 3.3c-1.15.17-1.72-.31-1.72-1.45l3.84-3.84c-1.96-.05-3.9-.18-5.82-.4-.41-.73-.32-1.39.26-1.98l5.56-.26a10.68 10.68 0 0 1-3.7-4.24c.1-.99.63-1.34 1.58-1.06a51.3 51.3 0 0 0 3.18 3.05c.07.2.2.38.4.53.17-13.85.17-27.7 0-41.54z" clip-rule="evenodd" image-rendering="optimizeQuality" shape-rendering="geometricPrecision" text-rendering="geometricPrecision"/>
  <path fill="red" fill-rule="evenodd" d="M103.92 100.05c.16-.04.25-.13.27-.27a60.42 60.42 0 0 0 3.44-3.3c1.32-.18 1.8.4 1.45 1.71l-3.57 3.58 5.3.26c.93.58 1.02 1.28.26 2.12l-5.56.26 3.57 3.57c.24 1.7-.42 2.19-1.98 1.46l-3.31-3.3a64.78 64.78 0 0 1-.4 5.55l-.53.26c-.72.14-1.2-.12-1.45-.8a44.52 44.52 0 0 0-.4-4.75 60.75 60.75 0 0 0-3.44 3.3c-1.15.17-1.72-.31-1.72-1.45l3.84-3.84c-1.96-.05-3.9-.18-5.82-.4-.41-.73-.32-1.39.26-1.98l5.56-.26a10.68 10.68 0 0 1-3.7-4.24c.1-.99.63-1.34 1.58-1.06a51.3 51.3 0 0 0 3.18 3.05c.07.2.2.38.4.53 0 0 2.8.07 2.77 0z" clip-rule="evenodd" image-rendering="optimizeQuality" shape-rendering="geometricPrecision" text-rendering="geometricPrecision"/>
  <path fill-rule="evenodd" d="m19.4 18.72 24.43 44.36-1.96.46-24.19-44.37Zm7.35-2.41 24.1 45.55-2.02.1-23.77-44.95Z" clip-rule="evenodd" image-rendering="optimizeQuality" shape-rendering="geometricPrecision" text-rendering="geometricPrecision"/>
  <path fill-rule="evenodd" d="M13.07 6.17c2.32-2.92 6.2-3.25 9.4-2.33 1.84.66 4.33 2.83 4.33 2.83l-.03 1.46-1.18-.45s-1.92-1.65-2.6-2.07c-2-1.24-3.5-1.35-6.52-.46-2.13 1.03-2.7 2.22-3.68 4.28a9.15 9.15 0 0 0-.44 3.06c-.05.82.73 2.6.81 2.71a9.77 9.77 0 0 0 2.45 2.31l1.57.78 1.3.4c3.01-1.27 3.98-1.88 6.99-3.15l.01-7.87c.43.01.78.4 1.32.42l.06 8.28-8.63 3.86c-2.62-.74-4.72-1.9-6.06-4.23-3.26-4.27.9-9.83.9-9.83Z" clip-rule="evenodd" image-rendering="optimizeQuality" shape-rendering="geometricPrecision" text-rendering="geometricPrecision"/>
</svg>
