<?xml version="1.0" standalone="no"?>
<!DOCTYPE svg PUBLIC "-//W3C//DTD SVG 20010904//EN"
 "http://www.w3.org/TR/2001/REC-SVG-20010904/DTD/svg10.dtd">
<svg version="1.0" xmlns="http://www.w3.org/2000/svg"
 width="472.000000pt" height="468.000000pt" viewBox="0 0 472.000000 468.000000"
 preserveAspectRatio="xMidYMid meet">

<g transform="translate(0.000000,468.000000) scale(0.100000,-0.100000)"
fill="#000000" stroke="none">
<path d="M1985 4390 c-184 -21 -443 -98 -617 -185 -700 -345 -1124 -1082
-1068 -1854 21 -286 124 -598 277 -840 l35 -54 -47 -126 c-67 -181 -128 -350
-201 -559 -35 -100 -69 -192 -75 -203 -21 -39 -42 -44 381 77 91 25 212 59
270 74 58 15 163 44 233 65 l128 37 122 -55 c235 -108 398 -157 597 -182 263
-34 599 6 855 102 102 38 298 138 385 195 285 190 517 450 663 743 80 160 115
252 152 410 91 381 70 740 -67 1130 -39 111 -162 335 -243 443 -183 246 -432
460 -677 583 -175 88 -300 130 -535 180 -112 24 -429 34 -568 19z m470 -305
c446 -72 824 -302 1076 -654 156 -219 259 -485 290 -748 16 -136 6 -404 -20
-521 -86 -390 -260 -673 -576 -939 -183 -154 -443 -273 -725 -330 -131 -27
-460 -24 -595 5 -189 41 -368 111 -551 218 -32 18 -33 18 -175 -19 -79 -20
-205 -55 -279 -77 -74 -21 -136 -37 -138 -35 -4 3 52 167 111 323 20 52 41
115 48 141 l12 46 -58 80 c-102 142 -203 381 -254 597 -43 187 -35 493 20 704
63 242 146 414 295 604 126 163 273 292 444 392 75 44 87 50 210 106 82 37
252 86 350 102 41 6 82 13 90 15 50 10 347 3 425 -10z"/>
<path d="M1419 3501 c-70 -38 -170 -181 -211 -300 -19 -57 -23 -86 -22 -206 0
-131 2 -146 33 -235 95 -278 400 -693 682 -926 157 -130 300 -214 496 -293
185 -74 228 -83 371 -79 124 3 129 4 205 42 51 25 101 61 146 105 86 82 110
141 118 281 6 113 15 102 -142 185 -289 154 -359 181 -390 155 -9 -7 -40 -48
-70 -90 -81 -115 -143 -180 -171 -180 -24 0 -164 64 -239 109 -67 41 -197 146
-256 208 -121 124 -259 333 -259 391 0 20 14 45 49 85 56 64 108 151 117 194
4 21 -3 52 -24 104 -17 41 -60 151 -97 244 -37 94 -78 181 -91 195 -21 22 -33
24 -116 27 -78 3 -99 0 -129 -16z"/>
</g>
</svg>
